<svg width="72" height="72" viewBox="0 0 72 72" fill="none" xmlns="http://www.w3.org/2000/svg">
<path d="M58.1539 37.3686C58.1539 46.0029 48.6367 54.5423 43.8781 57.7327C39.7472 44.2109 44.3168 30.5805 47.118 25.4556C40.3142 31.9721 37.8033 46.77 37.3983 53.3544C33.7534 49.2001 24.7425 47.1433 20.6926 46.6342C29.7643 49.1594 33.9222 55.0853 34.8672 57.7327C34.2597 57.7327 33.0245 57.8956 32.9435 58.5472C32.8422 59.3618 28.2861 61.1946 25.1475 60.8891C22.6366 60.6447 19.3764 58.0042 18.0602 56.7145C14.7393 55.0853 9.25177 41.645 6.9231 35.1285C10.028 36.1467 17.311 38.2442 21.6038 38.4886C25.8967 38.7329 31.6273 43.1723 33.9559 45.2087C34.0909 36.3164 35.7784 21.5864 52.4841 12.5244C54.6264 11.3622 58.1539 26.5756 58.1539 37.3686Z" fill="#5EB647"/>
<circle cx="36" cy="36" r="34.5" stroke="#5EB647" stroke-width="3"/>
</svg>
