<svg width="326" height="72" viewBox="0 0 326 72" fill="none" xmlns="http://www.w3.org/2000/svg">
<path d="M58.1539 37.3686C58.1539 46.0029 48.6367 54.5423 43.8781 57.7327C39.7472 44.2109 44.3168 30.5805 47.118 25.4556C40.3142 31.9721 37.8033 46.77 37.3983 53.3544C33.7534 49.2001 24.7425 47.1433 20.6926 46.6342C29.7643 49.1594 33.9222 55.0853 34.8672 57.7327C34.2597 57.7327 33.0245 57.8956 32.9435 58.5472C32.8422 59.3618 28.2861 61.1946 25.1475 60.8891C22.6366 60.6447 19.3764 58.0042 18.0602 56.7145C14.7393 55.0853 9.25177 41.645 6.9231 35.1285C10.028 36.1467 17.311 38.2442 21.6038 38.4886C25.8967 38.7329 31.6273 43.1723 33.9559 45.2087C34.0909 36.3164 35.7784 21.5864 52.4841 12.5244C54.6264 11.3622 58.1539 26.5756 58.1539 37.3686Z" fill="#5EB647"/>
<circle cx="36" cy="36" r="34.5" stroke="#5EB647" stroke-width="3"/>
<path d="M89.51 53V21.275H103.595C107.075 21.275 109.73 22.115 111.56 23.795C113.39 25.475 114.305 27.785 114.305 30.725C114.305 33.635 113.39 35.945 111.56 37.655C109.73 39.365 107.075 40.22 103.595 40.22H95.315V53H89.51ZM95.315 35.63H102.92C104.84 35.63 106.28 35.21 107.24 34.37C108.2 33.5 108.68 32.285 108.68 30.725C108.68 29.165 108.2 27.965 107.24 27.125C106.28 26.255 104.84 25.82 102.92 25.82H95.315V35.63ZM119.031 53V19.88H124.656V53H119.031ZM139.539 53.45C137.559 53.45 135.819 52.985 134.319 52.055C132.819 51.095 131.649 49.73 130.809 47.96C129.969 46.19 129.549 44.075 129.549 41.615C129.549 39.155 129.969 37.055 130.809 35.315C131.649 33.545 132.819 32.195 134.319 31.265C135.819 30.305 137.559 29.825 139.539 29.825C141.459 29.825 143.139 30.305 144.579 31.265C146.049 32.195 147.024 33.455 147.504 35.045H147.009L147.504 30.275H152.904C152.814 31.205 152.724 32.15 152.634 33.11C152.574 34.07 152.544 35.015 152.544 35.945V53H146.964L146.919 48.32H147.459C146.979 49.88 146.004 51.125 144.534 52.055C143.064 52.985 141.399 53.45 139.539 53.45ZM141.114 49.13C142.884 49.13 144.309 48.515 145.389 47.285C146.469 46.025 147.009 44.135 147.009 41.615C147.009 39.095 146.469 37.22 145.389 35.99C144.309 34.76 142.884 34.145 141.114 34.145C139.344 34.145 137.919 34.76 136.839 35.99C135.759 37.22 135.219 39.095 135.219 41.615C135.219 44.135 135.744 46.025 136.794 47.285C137.874 48.515 139.314 49.13 141.114 49.13ZM158.669 53V35.945C158.669 35.015 158.639 34.07 158.579 33.11C158.519 32.15 158.429 31.205 158.309 30.275H163.754L164.204 34.775H163.664C164.384 33.185 165.449 31.97 166.859 31.13C168.269 30.26 169.904 29.825 171.764 29.825C174.434 29.825 176.444 30.575 177.794 32.075C179.144 33.575 179.819 35.915 179.819 39.095V53H174.194V39.365C174.194 37.535 173.834 36.23 173.114 35.45C172.424 34.64 171.374 34.235 169.964 34.235C168.224 34.235 166.844 34.775 165.824 35.855C164.804 36.935 164.294 38.375 164.294 40.175V53H158.669ZM195.504 53.45C192.804 53.45 190.764 52.745 189.384 51.335C188.004 49.925 187.314 47.81 187.314 44.99V34.505H182.949V30.275H187.314V24.47L192.939 23.03V30.275H199.014V34.505H192.939V44.63C192.939 46.19 193.239 47.285 193.839 47.915C194.439 48.545 195.264 48.86 196.314 48.86C196.884 48.86 197.364 48.815 197.754 48.725C198.174 48.635 198.579 48.515 198.969 48.365V52.82C198.459 53.03 197.889 53.18 197.259 53.27C196.659 53.39 196.074 53.45 195.504 53.45ZM214.354 53.45C211.804 53.45 209.449 53.135 207.289 52.505C205.159 51.845 203.329 50.945 201.799 49.805L203.599 45.26C204.619 45.98 205.684 46.595 206.794 47.105C207.904 47.585 209.089 47.96 210.349 48.23C211.609 48.47 212.944 48.59 214.354 48.59C216.724 48.59 218.434 48.2 219.484 47.42C220.534 46.64 221.059 45.62 221.059 44.36C221.059 43.25 220.699 42.41 219.979 41.84C219.259 41.24 217.969 40.745 216.109 40.355L211.024 39.32C208.114 38.72 205.939 37.715 204.499 36.305C203.059 34.895 202.339 33.005 202.339 30.635C202.339 28.655 202.864 26.93 203.914 25.46C204.964 23.99 206.434 22.85 208.324 22.04C210.214 21.23 212.419 20.825 214.939 20.825C217.189 20.825 219.274 21.155 221.194 21.815C223.114 22.445 224.719 23.36 226.009 24.56L224.209 28.88C222.919 27.8 221.509 27.005 219.979 26.495C218.449 25.955 216.739 25.685 214.849 25.685C212.719 25.685 211.054 26.105 209.854 26.945C208.684 27.755 208.099 28.88 208.099 30.32C208.099 31.43 208.459 32.315 209.179 32.975C209.929 33.635 211.189 34.145 212.959 34.505L217.999 35.495C220.999 36.095 223.219 37.085 224.659 38.465C226.099 39.815 226.819 41.645 226.819 43.955C226.819 45.845 226.309 47.51 225.289 48.95C224.269 50.36 222.829 51.47 220.969 52.28C219.109 53.06 216.904 53.45 214.354 53.45ZM241.339 53.45C238.639 53.45 236.599 52.745 235.219 51.335C233.839 49.925 233.149 47.81 233.149 44.99V34.505H228.784V30.275H233.149V24.47L238.774 23.03V30.275H244.849V34.505H238.774V44.63C238.774 46.19 239.074 47.285 239.674 47.915C240.274 48.545 241.099 48.86 242.149 48.86C242.719 48.86 243.199 48.815 243.589 48.725C244.009 48.635 244.414 48.515 244.804 48.365V52.82C244.294 53.03 243.724 53.18 243.094 53.27C242.494 53.39 241.909 53.45 241.339 53.45ZM258.71 53.45C256.37 53.45 254.345 52.97 252.635 52.01C250.925 51.05 249.59 49.685 248.63 47.915C247.7 46.145 247.235 44.045 247.235 41.615C247.235 39.185 247.7 37.1 248.63 35.36C249.59 33.59 250.925 32.225 252.635 31.265C254.345 30.305 256.37 29.825 258.71 29.825C261.05 29.825 263.075 30.305 264.785 31.265C266.525 32.225 267.86 33.59 268.79 35.36C269.75 37.1 270.23 39.185 270.23 41.615C270.23 44.045 269.75 46.145 268.79 47.915C267.86 49.685 266.525 51.05 264.785 52.01C263.075 52.97 261.05 53.45 258.71 53.45ZM258.71 49.13C260.48 49.13 261.89 48.515 262.94 47.285C263.99 46.025 264.515 44.135 264.515 41.615C264.515 39.095 263.99 37.22 262.94 35.99C261.89 34.76 260.48 34.145 258.71 34.145C256.94 34.145 255.53 34.76 254.48 35.99C253.43 37.22 252.905 39.095 252.905 41.615C252.905 44.135 253.43 46.025 254.48 47.285C255.53 48.515 256.94 49.13 258.71 49.13ZM275.081 62.72V35.945C275.081 35.015 275.051 34.07 274.991 33.11C274.931 32.15 274.841 31.205 274.721 30.275H280.166L280.661 35.045H280.166C280.616 33.455 281.561 32.195 283.001 31.265C284.471 30.305 286.166 29.825 288.086 29.825C290.096 29.825 291.851 30.305 293.351 31.265C294.851 32.195 296.021 33.545 296.861 35.315C297.701 37.055 298.121 39.155 298.121 41.615C298.121 44.075 297.701 46.19 296.861 47.96C296.021 49.73 294.851 51.095 293.351 52.055C291.851 52.985 290.096 53.45 288.086 53.45C286.196 53.45 284.531 52.985 283.091 52.055C281.651 51.125 280.691 49.88 280.211 48.32H280.706V62.72H275.081ZM286.511 49.13C288.311 49.13 289.751 48.515 290.831 47.285C291.911 46.025 292.451 44.135 292.451 41.615C292.451 39.095 291.911 37.22 290.831 35.99C289.751 34.76 288.311 34.145 286.511 34.145C284.741 34.145 283.316 34.76 282.236 35.99C281.156 37.22 280.616 39.095 280.616 41.615C280.616 44.135 281.156 46.025 282.236 47.285C283.316 48.515 284.741 49.13 286.511 49.13ZM315.614 53.25C314.331 53.25 313.139 53.025 312.039 52.575C310.939 52.1083 309.972 51.4667 309.139 50.65C308.322 49.8167 307.681 48.85 307.214 47.75C306.764 46.65 306.539 45.4583 306.539 44.175C306.539 42.8917 306.764 41.7 307.214 40.6C307.681 39.5 308.322 38.5417 309.139 37.725C309.972 36.9083 310.939 36.275 312.039 35.825C313.139 35.3583 314.331 35.125 315.614 35.125C316.897 35.125 318.089 35.3583 319.189 35.825C320.289 36.275 321.247 36.9083 322.064 37.725C322.881 38.5417 323.514 39.5 323.964 40.6C324.431 41.7 324.664 42.8917 324.664 44.175C324.664 45.4583 324.431 46.65 323.964 47.75C323.514 48.85 322.881 49.8167 322.064 50.65C321.247 51.4667 320.289 52.1083 319.189 52.575C318.089 53.025 316.897 53.25 315.614 53.25ZM315.614 51.925C316.714 51.925 317.731 51.7333 318.664 51.35C319.597 50.95 320.406 50.4 321.089 49.7C321.772 49 322.306 48.1833 322.689 47.25C323.072 46.3 323.264 45.275 323.264 44.175C323.264 43.075 323.072 42.0583 322.689 41.125C322.306 40.175 321.772 39.3583 321.089 38.675C320.406 37.975 319.597 37.4333 318.664 37.05C317.731 36.65 316.714 36.45 315.614 36.45C314.514 36.45 313.497 36.65 312.564 37.05C311.631 37.4333 310.814 37.975 310.114 38.675C309.431 39.3583 308.897 40.175 308.514 41.125C308.131 42.0583 307.939 43.075 307.939 44.175C307.939 45.275 308.131 46.3 308.514 47.25C308.897 48.1833 309.431 49 310.114 49.7C310.814 50.4 311.631 50.95 312.564 51.35C313.497 51.7333 314.514 51.925 315.614 51.925ZM311.739 49.45V38.875H316.314C317.497 38.875 318.397 39.1667 319.014 39.75C319.647 40.3167 319.964 41.0667 319.964 42C319.964 42.9667 319.656 43.7083 319.039 44.225C318.422 44.725 317.556 44.975 316.439 44.975L316.989 44.7C317.522 44.7 317.964 44.8333 318.314 45.1C318.664 45.35 318.939 45.8417 319.139 46.575L320.089 49.45H317.639L316.664 46.325C316.547 45.9583 316.364 45.7167 316.114 45.6C315.864 45.4667 315.572 45.4 315.239 45.4H313.739L314.139 45.125V49.45H311.739ZM314.114 43.6H315.989C316.556 43.6 316.981 43.4833 317.264 43.25C317.547 43.0167 317.689 42.6417 317.689 42.125C317.689 41.625 317.547 41.2583 317.264 41.025C316.981 40.7917 316.556 40.675 315.989 40.675H314.114V43.6Z" fill="#5EB647"/>
</svg>
