<svg width="55" height="55" viewBox="0 0 55 55" fill="none" xmlns="http://www.w3.org/2000/svg">
<path d="M18.215 27.304C18.215 22.2776 22.291 18.2019 27.3203 18.2019C32.3497 18.2019 36.4279 22.2776 36.4279 27.304C36.4279 32.3303 32.3497 36.406 27.3203 36.406C22.291 36.406 18.215 32.3303 18.215 27.304ZM13.2917 27.304C13.2917 35.0474 19.5723 41.3242 27.3203 41.3242C35.0684 41.3242 41.349 35.0474 41.349 27.304C41.349 19.5606 35.0684 13.2837 27.3203 13.2837C19.5723 13.2837 13.2917 19.5606 13.2917 27.304ZM38.6259 12.7278C38.6257 13.3758 38.8177 14.0094 39.1777 14.5483C39.5378 15.0873 40.0496 15.5074 40.6486 15.7557C41.2475 16.0039 41.9067 16.069 42.5427 15.9429C43.1787 15.8167 43.763 15.5049 44.2217 15.0469C44.6803 14.5888 44.9928 14.0051 45.1196 13.3696C45.2463 12.7341 45.1817 12.0753 44.9338 11.4765C44.6859 10.8777 44.2659 10.3658 43.7269 10.0055C43.1879 9.64531 42.5541 9.45289 41.9057 9.45263H41.9044C41.0352 9.45304 40.2018 9.79819 39.5871 10.4123C38.9724 11.0264 38.6267 11.8592 38.6259 12.7278ZM16.2829 49.5287C13.6193 49.4075 12.1715 48.9641 11.2094 48.5895C9.9339 48.0932 9.0238 47.5021 8.06693 46.5471C7.11006 45.5922 6.51776 44.6835 6.02337 43.4087C5.64832 42.4476 5.20463 41.0003 5.08355 38.3383C4.9511 35.4602 4.92466 34.5956 4.92466 27.3042C4.92466 20.0127 4.95329 19.1506 5.08355 16.2701C5.20485 13.6081 5.65181 12.1636 6.02337 11.1996C6.51995 9.92488 7.11138 9.01533 8.06693 8.05904C9.02249 7.10274 9.93171 6.51079 11.2094 6.0167C12.1711 5.64187 13.6193 5.19846 16.2829 5.07744C19.1627 4.94508 20.0278 4.91864 27.3203 4.91864C34.6129 4.91864 35.4789 4.94726 38.361 5.07744C41.0247 5.19867 42.47 5.64537 43.4345 6.0167C44.7101 6.51079 45.6202 7.10405 46.577 8.05904C47.5339 9.01402 48.124 9.92488 48.6206 11.1996C48.9956 12.1607 49.4393 13.6081 49.5604 16.2701C49.6929 19.1506 49.7193 20.0127 49.7193 27.3042C49.7193 34.5956 49.6929 35.4578 49.5604 38.3383C49.4391 41.0003 48.9932 42.4472 48.6206 43.4087C48.124 44.6835 47.5326 45.593 46.577 46.5471C45.6215 47.5012 44.7101 48.0932 43.4345 48.5895C42.4729 48.9643 41.0247 49.4077 38.361 49.5287C35.4813 49.6611 34.6162 49.6875 27.3203 49.6875C20.0245 49.6875 19.1618 49.6611 16.2829 49.5287ZM16.0567 0.165353C13.1483 0.297722 11.1609 0.758613 9.4253 1.43357C7.62784 2.13058 6.10621 3.06569 4.58566 4.58292C3.06512 6.10014 2.13186 7.62327 1.43443 9.41965C0.759068 11.1553 0.297901 13.1404 0.165452 16.0471C0.0308174 18.9583 0 19.8891 0 27.304C0 34.7188 0.0308174 35.6496 0.165452 38.5608C0.297901 41.4677 0.759068 43.4526 1.43443 45.1883C2.13186 46.9836 3.06534 48.5084 4.58566 50.025C6.10599 51.5416 7.62784 52.4754 9.4253 53.1744C11.1642 53.8493 13.1483 54.3102 16.0567 54.4426C18.9712 54.5749 19.901 54.6079 27.3203 54.6079C34.7397 54.6079 35.671 54.5771 38.584 54.4426C41.4926 54.3102 43.4787 53.8493 45.2154 53.1744C47.0118 52.4754 48.5345 51.5422 50.055 50.025C51.5756 48.5078 52.5069 46.9836 53.2063 45.1883C53.8816 43.4526 54.345 41.4675 54.4752 38.5608C54.6077 35.6474 54.6385 34.7188 54.6385 27.304C54.6385 19.8891 54.6077 18.9583 54.4752 16.0471C54.3428 13.1402 53.8816 11.1542 53.2063 9.41965C52.5069 7.62436 51.5732 6.10254 50.055 4.58292C48.5369 3.06329 47.0118 2.13058 45.2176 1.43357C43.4787 0.758613 41.4924 0.295538 38.5862 0.165353C35.6732 0.0329832 34.7419 0 27.3225 0C19.9032 0 18.9712 0.0307989 16.0567 0.165353Z" fill="url(#paint0_linear_426_2)"/>
<defs>
<linearGradient id="paint0_linear_426_2" x1="53.5884" y1="54.6079" x2="-1.01956" y2="-0.0305715" gradientUnits="userSpaceOnUse">
<stop stop-color="#FBE18A"/>
<stop offset="0.21" stop-color="#FCBB45"/>
<stop offset="0.38" stop-color="#F75274"/>
<stop offset="0.52" stop-color="#D53692"/>
<stop offset="0.74" stop-color="#8F39CE"/>
<stop offset="1" stop-color="#5B4FE9"/>
</linearGradient>
</defs>
</svg>
